<svg id="Capa_1" enable-background="new 0 0 512 512" height="512" viewBox="0 0 512 512" width="512" xmlns="http://www.w3.org/2000/svg"><g fill="#d97c40"><path d="m232.958 140.508h46.083v152.854h-46.083z"/><path d="m60.997 140.508h46.083v152.854h-46.083z"/><path d="m404.919 140.508h46.083v152.854h-46.083z" transform="matrix(-1 0 0 -1 855.922 433.87)"/></g><path d="m504.5 266.207c-22.815-8.982-48.185-8.982-71 0-22.815 8.982-48.185 8.982-71 0-22.815-8.982-48.185-8.982-71 0-22.815 8.982-48.185 8.982-71 0-22.815-8.982-48.185-8.982-71 0-22.815 8.982-48.185 8.982-71 0-22.815-8.982-48.185-8.982-71 0v66.167l32.959 32.959h405.884l58.158-32.959v-66.167z" fill="#78cbec"/><path d="m60.997 140.508h46.083v49.573h-46.083z" fill="#c76d33"/><path d="m232.958 140.508h46.083v49.573h-46.083z" fill="#c76d33"/><path d="m404.919 140.508h46.083v49.573h-46.083z" fill="#c76d33"/><path d="m7.5 103.46h497v56.621h-497z" fill="#e3986d"/><path d="m7.5 408.54h497v-76.167c-22.815-8.982-48.185-8.982-71 0-22.815 8.982-48.185 8.982-71 0-22.815-8.982-48.185-8.982-71 0-22.815 8.982-48.185 8.982-71 0-22.815-8.982-48.185-8.982-71 0-22.815 8.982-48.185 8.982-71 0-22.815-8.982-48.185-8.982-71 0z" fill="#00acdc"/><path d="m15 152.581v-41.621h77.991c4.142 0 7.5-3.358 7.5-7.5s-3.358-7.5-7.5-7.5h-85.491c-4.142 0-7.5 3.358-7.5 7.5v56.621c0 4.142 3.358 7.5 7.5 7.5h45.998v84.904c-16.403-1.667-33.078.576-48.745 6.744-2.868 1.128-4.753 3.896-4.753 6.978v142.333c0 4.142 3.358 7.5 7.5 7.5h497c4.142 0 7.5-3.358 7.5-7.5v-142.333c0-3.082-1.885-5.85-4.752-6.979-15.667-6.167-32.342-8.411-48.745-6.744v-84.904h45.997c4.142 0 7.5-3.358 7.5-7.5v-56.62c0-4.142-3.358-7.5-7.5-7.5h-381.509c-4.142 0-7.5 3.358-7.5 7.5s3.358 7.5 7.5 7.5h374.009v41.621zm382.419 112.87c-10.902-.071-21.796-2.138-32.172-6.223-24.665-9.71-51.831-9.71-76.495 0-.732.288-1.473.542-2.21.811v-92.458h110.877zm-282.838-97.87h110.877v92.458c-.738-.269-1.479-.523-2.211-.811-24.665-9.71-51.831-9.71-76.495 0-10.376 4.085-21.269 6.151-32.171 6.223zm156.961 0v96.486c-10.259 1.804-20.825 1.804-31.083 0v-96.486zm-203.044 0h31.083v96.672c-1.559-.252-3.108-.546-4.646-.88-.023-.005-.046-.01-.07-.015-6.866-1.445-13.344-4.26-20.038-6.416-2.096-.672-4.208-1.275-6.33-1.812v-87.549zm428.502 103.885v50.49c-.128-.036-.257-.064-.384-.099-15.903-4.376-32.763-4.904-48.908-1.535-13.658 2.85-26.359 9.317-40.329 10.812-10.287 1.085-20.743.338-30.784-2.139-3.914-.964-8.095 1.5-9.078 5.486-.967 3.922 1.574 8.112 5.486 9.078 15.431 3.808 31.679 4.053 47.208.666 13.86-3.023 26.372-9.418 40.683-10.721 12.175-1.109 24.499.313 36.107 4.146v63.391h-482.001v-63.391c14.657-4.84 30.597-5.874 45.723-2.735 7.61 1.579 14.651 4.593 22.028 6.913 22.49 7.073 47.384 6.23 69.496-2.475 20.938-8.244 44.565-8.244 65.505 0 24.353 9.591 52.137 9.597 76.495 0 15.73-6.198 33.147-7.78 49.739-4.568 4.659.902 9.496-2.251 9.471-7.301-.017-3.488-2.48-6.601-6.034-7.31-19.197-3.835-39.485-2.136-57.762 4.883-21.372 8.176-44.987 8.79-66.415.34-15.942-6.277-33.357-8.568-50.376-6.572-14.008 1.646-26.341 7.786-39.951 10.747-12.482 2.716-25.358 2.716-37.841 0-11.182-2.433-21.8-7.582-33.152-9.694-15.403-2.866-31.446-2.175-46.55 1.982-.125.034-.252.062-.378.097v-50.49c14.538-4.804 29.914-5.759 44.792-2.9 6.837 1.314 13.328 3.804 19.886 6.069 23.6 8.228 49.207 7.748 72.57-1.45 21.12-8.314 44.385-8.314 65.505 0 24.664 9.71 51.831 9.71 76.495 0 21.12-8.314 44.385-8.314 65.505 0 23.362 9.198 48.969 9.677 72.568 1.451 6.438-2.244 13.062-4.767 19.886-6.069 14.88-2.861 30.257-1.906 44.795 2.898zm-53.498-16.335c-2.124.537-4.236 1.14-6.333 1.813-8.234 2.641-16.165 5.919-24.75 7.309v-96.672h31.083z"/></svg>