<svg id="Layer_1" enable-background="new 0 0 512 512" height="512" viewBox="0 0 512 512" width="512" xmlns="http://www.w3.org/2000/svg"><g><g><g><g><g><path d="m400.996 30.14v451.72c0 12.51-10.13 22.64-22.64 22.64h-244.72c-11.27 0-20.61-8.22-22.35-19-.19-1.18-.29-2.4-.29-3.64v-451.72c0-12.51 10.13-22.64 22.64-22.64h244.72c12.51 0 22.64 10.13 22.64 22.64z" fill="#b3f6ff"/><path d="m400.996 30.14v451.72c0 12.51-10.13 22.64-22.64 22.64h-244.72c-11.27 0-20.61-8.22-22.35-19h243.07c12.51 0 22.64-10.13 22.64-22.64v-432.72c0-12.51-10.13-22.64-22.64-22.64h24c12.51 0 22.64 10.13 22.64 22.64z" fill="#a0dbf2"/><path d="m400.996 469.5v12.36c0 12.51-10.13 22.64-22.64 22.64h-244.72c-11.27 0-20.61-8.22-22.35-19-.19-1.18-.29-2.4-.29-3.64v-12.36z" fill="#616270"/><path d="m330.996 7.5v22.05c0 6.76-5.48 12.25-12.25 12.25h-125.5c-6.77 0-12.25-5.49-12.25-12.25v-22.05z" fill="#616270"/><g fill="#40414c"><path d="m330.996 12.55v17c0 6.76-5.48 12.25-12.25 12.25h-125.5c-6.77 0-12.25-5.49-12.25-12.25v-4.75h137.75c6.77 0 12.25-5.49 12.25-12.25z"/><path d="m400.996 469.5v12.36c0 12.51-10.13 22.64-22.64 22.64h-244.72c-11.27 0-20.61-8.22-22.35-19h243.07c10.2 0 18.82-6.74 21.65-16z"/></g></g></g></g></g><g><path d="m341.658 324.524-7.1 11.84-2.51 4.19c-2.56 4.34-6.68 7.52-11.51 8.9-15.99 4.38-51.24 5.27-107.75-51.24-56.5-56.51-55.62-91.76-51.24-107.75 1.38-4.83 4.56-8.96 8.9-11.51l4.6-2.76 11.43-6.86c3.66-2.19 8.39-1.12 10.76 2.43l25.55 38.33c2.32 3.48 1.56 8.16-1.74 10.73l-11.52 8.34c-3.12 2.4-4.01 6.71-2.11 10.15 4.22 7.57 8.21 16.51 27.97 36.3 19.77 19.79 28.73 23.75 36.3 27.97 3.44 1.9 7.75 1.01 10.15-2.11l8.34-11.52c2.57-3.3 7.25-4.06 10.73-1.74l38.33 25.55c3.55 2.37 4.62 7.1 2.42 10.76z" fill="#51e08b"/><path d="m341.658 324.524-7.1 11.84c-15.98 4.38-50.74 4.82-107.24-51.69-56.51-56.51-56.65-92.5-52.27-108.48l11.43-6.86c3.66-2.19 8.39-1.12 10.76 2.43l25.55 38.33c2.32 3.48 1.56 8.16-1.74 10.73l-11.52 8.34c-3.12 2.4-4.01 6.71-2.11 10.15 4.22 7.57 8.21 16.51 27.97 36.3 19.77 19.79 28.73 23.75 36.3 27.97 3.44 1.9 7.75 1.01 10.15-2.11l8.34-11.52c2.57-3.3 7.25-4.06 10.73-1.74l38.33 25.55c3.55 2.37 4.62 7.1 2.42 10.76z" fill="#1bc18a"/></g></g><g><path d="m401 59.555c4.143 0 7.5-3.358 7.5-7.5v-21.919c0-16.617-13.52-30.136-30.137-30.136h-244.726c-16.617 0-30.137 13.519-30.137 30.136v451.728c0 16.617 13.52 30.136 30.137 30.136h244.727c16.617 0 30.137-13.519 30.137-30.136v-394.776c0-4.142-3.357-7.5-7.5-7.5s-7.5 3.358-7.5 7.5v374.912h-194.941c-4.143 0-7.5 3.358-7.5 7.5s3.357 7.5 7.5 7.5h194.94v4.864c0 8.346-6.79 15.136-15.137 15.136h-244.726c-8.347 0-15.137-6.79-15.137-15.136v-4.864h45.462c4.143 0 7.5-3.358 7.5-7.5s-3.357-7.5-7.5-7.5h-45.462v-431.864c0-8.346 6.79-15.136 15.137-15.136h39.863v14.55c0 10.889 8.859 19.748 19.748 19.748h125.504c10.889 0 19.748-8.859 19.748-19.748v-14.55h39.863c8.347 0 15.137 6.79 15.137 15.136v21.919c0 4.142 3.357 7.5 7.5 7.5zm-77.5-30.005c0 2.618-2.13 4.748-4.748 4.748h-125.504c-2.618 0-4.748-2.13-4.748-4.748v-14.55h135z"/><path d="m225.441 226.905c.072-.052.144-.105.213-.16 6.359-4.954 7.844-14.091 3.375-20.809l-25.556-38.336c-4.595-6.89-13.754-8.951-20.858-4.692l-15.98 9.587c-6.019 3.546-10.387 9.2-12.318 15.988-6.075 22.149-1.782 60.085 53.167 115.036 43.476 43.475 76.298 55.238 99.114 55.238 6.021 0 11.349-.82 15.988-2.093 6.721-1.913 12.374-6.282 15.889-12.249l9.617-16.031c4.26-7.102 2.199-16.264-4.69-20.858-.001 0-.001 0-.001 0l-38.343-25.561c-6.709-4.462-15.847-2.98-20.802 3.377-.054.07-.107.142-.16.213l-8.229 11.377c-.142.15-.362.187-.534.093-.711-.396-1.434-.789-2.176-1.193-6.802-3.701-15.267-8.308-32.46-25.523-17.246-17.268-21.857-25.729-25.563-32.528-.393-.721-.775-1.423-1.153-2.103-.102-.183-.064-.406.086-.546zm-24.577 16.055c.363.654.726 1.319 1.098 2.001 4.165 7.643 9.35 17.155 28.12 35.949 18.729 18.753 28.252 23.936 35.903 28.099.701.381 1.384.753 2.067 1.133 6.735 3.729 15.031 2.008 19.727-4.091.045-.059.09-.119.134-.179l8.21-11.35c.163-.167.426-.199.62-.071l38.336 25.557c.218.146.283.437.148.661l-9.648 16.083c-1.581 2.685-4.103 4.633-7.032 5.467-34.923 9.582-77.93-26.78-100.457-49.306-22.527-22.527-58.889-65.534-49.329-100.392.854-2.998 2.803-5.521 5.539-7.133l16.029-9.616c.08-.048.167-.071.254-.071.159 0 .314.078.409.219l25.553 38.331c.132.198.1.463-.067.625l-11.35 8.21c-.061.044-.121.088-.18.134-6.099 4.697-7.82 12.993-4.084 19.74z"/><path d="m299.506 259.734c0 4.142 3.357 7.5 7.5 7.5s7.5-3.358 7.5-7.5c0-34.871-28.369-63.24-63.24-63.24-4.143 0-7.5 3.358-7.5 7.5s3.357 7.5 7.5 7.5c26.599 0 48.24 21.64 48.24 48.24z"/><path d="m359.766 259.734c0-59.827-48.673-108.5-108.5-108.5-4.143 0-7.5 3.358-7.5 7.5s3.357 7.5 7.5 7.5c51.556 0 93.5 41.944 93.5 93.5 0 4.142 3.357 7.5 7.5 7.5s7.5-3.358 7.5-7.5z"/></g></svg>