<svg id="Capa_1" enable-background="new 0 0 512 512" height="512" viewBox="0 0 512 512" width="512" xmlns="http://www.w3.org/2000/svg"><g><path d="m40.294 143.993h431.412v36.366h-431.412z" fill="#7d8c97"/><g><path d="m276.796 255.197h41.604v50.735h-41.604z" fill="#d7e3f2"/><path d="m276.796 255.197h41.604v20.58h-41.604z" fill="#b7cee9"/><path d="m334.284 223.975h-73.372c-8.622 0-15.611 6.989-15.611 15.611s6.989 15.611 15.611 15.611h73.372c8.622 0 15.611-6.989 15.611-15.611s-6.99-15.611-15.611-15.611z" fill="#f29b4e"/><path d="m297.598 80.764c17.435 0 31.568 14.134 31.568 31.568v111.643h-63.136v-111.642c0-17.435 14.133-31.569 31.568-31.569z" fill="#f29b4e"/><g fill="#ef7d31"><path d="m266.03 199.298h63.136v24.677h-63.136z"/><path d="m297.598 80.764c-4.477 0-8.734.938-12.592 2.618 11.166 4.864 18.976 15.992 18.976 28.95v111.643h25.184v-111.642c0-17.435-14.134-31.569-31.568-31.569z"/></g></g><path d="m471.706 143.993v263.568h32.794v-257.507c0-3.347-2.714-6.061-6.061-6.061z" fill="#d76134"/><path d="m7.5 150.054v257.507h32.794v-263.568h-26.733c-3.347 0-6.061 2.714-6.061 6.061z" fill="#d76134"/><g><path d="m137.35 77.915h40.319v265.26h-40.319z" fill="#5ecfb4" transform="matrix(.978 -.208 .208 .978 -40.333 37.349)"/><path d="m114.007 80.368h40.319v40.709h-40.319z" fill="#50b3a0" transform="matrix(.978 -.208 .208 .978 -18.009 30.095)"/><g><path d="m76.498 60.291-32.558 6.92c-1.253.266-2.484-.533-2.75-1.786l-1.96-9.222c-.291-1.369-1.636-2.242-3.005-1.951l-24.19 5.142c-1.369.291-2.242 1.636-1.951 3.005l11.328 53.293c.291 1.369 1.636 2.242 3.005 1.951l24.19-5.142c1.369-.291 2.242-1.636 1.951-3.005l-1.96-9.222c-.266-1.253.533-2.484 1.786-2.75l32.558-6.92z" fill="#b7cee9"/><path d="m161.86 27.546-91.655 19.482c-3.116.662-5.106 3.726-4.443 6.842l9.982 46.963c.662 3.116 3.726 5.106 6.842 4.443l110.229-23.43c4.739-1.007 9.578 1.218 11.897 5.472l8.86 16.253c1.528 2.802 5.038 3.836 7.84 2.308l7.786-3.384c7.942-4.329 11.079-13.3 6.749-21.242l-14.287-26.202c-11.658-21.382-35.978-32.568-59.8-27.505z" fill="#d7e3f2"/></g></g><path d="m413.531 95.165h-23.37c-2.391 0-4.526 1.495-5.343 3.742l-15.425 42.381c-1.669 4.586-.955 9.702 1.907 13.656l12.212 16.87c1.734 2.396 2.668 5.277 2.668 8.235v153.717h31.333v-153.718c0-2.957.934-5.839 2.668-8.235l12.212-16.87c2.862-3.954 3.576-9.069 1.907-13.656l-15.425-42.381c-.818-2.246-2.954-3.741-5.344-3.741z" fill="#d7e3f2"/><path d="m504.5 305.932h-497v172.63c0 3.905 3.166 7.071 7.071 7.071h482.858c3.905 0 7.071-3.166 7.071-7.071z" fill="#f29b4e"/><path d="m497.429 455.478h-482.858c-3.905 0-7.071-3.166-7.071-7.071v30.155c0 3.905 3.166 7.071 7.071 7.071h482.858c3.905 0 7.071-3.166 7.071-7.071v-30.155c0 3.905-3.166 7.071-7.071 7.071z" fill="#ef7d31"/><path d="m200.87 357.764v33c0 2.761 2.239 5 5 5h100.26c2.761 0 5-2.239 5-5v-33c0-2.761-2.239-5-5-5h-100.26c-2.762 0-5 2.239-5 5z" fill="#d76134"/><g><path d="m504.5 234.386c4.143 0 7.5-3.357 7.5-7.5v-76.83c0-7.478-6.083-13.561-13.56-13.561h-57.903l-14.612-40.132c-1.874-5.203-6.855-8.698-12.396-8.698h-23.37c-5.52 0-10.498 3.485-12.388 8.674l-14.62 40.156h-26.486v-24.163c0-21.542-17.526-39.068-39.068-39.068s-39.068 17.526-39.068 39.068v24.163h-88.484l-8.569-40.32 32.9-6.993c1.477-.316 3.025.394 3.751 1.727l8.86 16.254c2.408 4.415 6.974 6.92 11.681 6.919 2.02 0 4.066-.461 5.978-1.431l7.541-3.276c.205-.089.405-.187.6-.294 5.566-3.033 9.656-7.835 11.515-13.519 1.932-5.904 1.303-12.261-1.771-17.898l-14.287-26.203c-13.145-24.109-41.083-36.958-67.944-31.251l-26.359 5.603c-4.052.861-6.638 4.844-5.777 8.896.861 4.051 4.844 6.646 8.895 5.776l26.359-5.603c20.424-4.343 41.663 5.431 51.656 23.759l14.287 26.203c1.09 1.999 1.327 4.093.685 6.054-.64 1.956-2.12 3.677-4.182 4.87l-6.472 2.813-8.095-14.85c-3.876-7.113-12.123-10.905-20.041-9.22-12.509 2.659-97.388 20.7-108.536 23.069l-9.263-43.576 28.602-6.08c4.051-.861 6.638-4.844 5.776-8.896s-4.84-6.644-8.896-5.776l-30.296 6.439c-7.154 1.522-11.738 8.582-10.218 15.738l.21.988-11.188 2.376-.88-4.142c-.558-2.636-2.112-4.893-4.377-6.354-2.262-1.458-4.954-1.945-7.529-1.378l-24.196 5.141c-5.402 1.152-8.866 6.485-7.721 11.895l11.329 53.284c.555 2.62 2.097 4.87 4.344 6.333 1.649 1.075 3.533 1.631 5.459 1.631.7 0 1.405-.073 2.106-.222l24.192-5.151c5.403-1.151 8.868-6.484 7.722-11.895l-.882-4.151 11.185-2.376.209.984c.737 3.467 2.78 6.438 5.752 8.369 2.973 1.932 6.521 2.59 9.985 1.851l23.229-4.937 6.125 28.82h-99.938c-7.478.001-13.561 6.083-13.561 13.559v328.508c0 8.034 6.537 14.571 14.571 14.571h482.857c8.034 0 14.571-6.537 14.571-14.571v-216.676c0-4.143-3.357-7.5-7.5-7.5s-7.5 3.357-7.5 7.5v36.545h-17.79v-146.935h17.791v75.391c0 4.142 3.357 7.499 7.5 7.499zm-455.646-144.203c-2.573.534-4.78 2.042-6.215 4.244-1.438 2.207-1.925 4.842-1.375 7.408l.926 4.358-14.476 3.082-9.264-43.575 14.477-3.076.932 4.387c.552 2.557 2.065 4.748 4.26 6.17 2.207 1.43 4.836 1.912 7.379 1.361l16.256-3.452 3.326 15.648zm415.356 82.673h-35.525l9.785-13.519c1.727-2.391 2.926-5.06 3.594-7.842h22.146zm-72.777-70.19h20.825l14.994 41.185c.818 2.249.466 4.755-.938 6.698l-12.211 16.87c-2.678 3.701-4.094 8.067-4.094 12.627v118.386h-16.33v-118.386c0-4.583-1.42-8.955-4.095-12.627l-12.205-16.863c-1.408-1.95-1.76-4.457-.942-6.703zm-65.534 195.765v-35.734h8.385c12.743 0 23.11-10.368 23.11-23.111 0-11.939-9.1-21.792-20.729-22.988v-28.742h42.014v110.575zm-42.163 0v-35.734h27.163v35.734zm-79.274 0-23.501-110.575h77.568v28.742c-11.628 1.196-20.729 11.049-20.729 22.988 0 12.743 10.367 23.111 23.11 23.111h7.825v35.734zm129.822-66.956c4.472 0 8.11 3.639 8.11 8.11 0 4.473-3.639 8.111-8.11 8.111h-73.373c-4.472 0-8.11-3.639-8.11-8.111s3.638-8.11 8.11-8.11zm27.342-79.979c.669 2.783 1.869 5.453 3.598 7.848l9.78 13.513h-38.339v-21.36h24.961zm-64.028-63.232c13.271 0 24.068 10.797 24.068 24.068v104.143h-48.137v-104.142c0-13.272 10.797-24.069 24.069-24.069zm-39.069 63.232v21.36h-80.756l-4.54-21.36zm-111.725-52.201 42.324 199.137h-25.875l-41.206-193.874zm-25.576 73.561h-73.436v-21.36h68.896zm-88.436-21.36v75.395c0 4.143 3.358 7.5 7.5 7.5s7.5-3.357 7.5-7.5v-39.034h76.624l23.502 110.575h-100.128v-36.545c0-4.143-3.358-7.5-7.5-7.5s-7.5 3.357-7.5 7.5v36.545h-17.79v-146.936zm464.208 326.638h-482v-164.703h482zm-71.99-179.703v-110.575h39.2v110.575z"/><path d="m306.131 345.264h-100.261c-6.893 0-12.5 5.607-12.5 12.5v33c0 6.893 5.607 12.5 12.5 12.5h100.261c6.893 0 12.5-5.607 12.5-12.5v-33c0-6.892-5.608-12.5-12.5-12.5zm-2.5 43h-95.261v-28h95.261z"/></g></g></svg>